<?xml version="1.0" standalone="no"?>
<!DOCTYPE svg PUBLIC "-//W3C//DTD SVG 20010904//EN"
 "http://www.w3.org/TR/2001/REC-SVG-20010904/DTD/svg10.dtd">
<svg version="1.0" xmlns="http://www.w3.org/2000/svg"
 width="192.000000pt" height="192.000000pt" viewBox="0 0 192.000000 192.000000"
 preserveAspectRatio="xMidYMid meet">
<metadata>
Created by potrace 1.11, written by Peter Selinger 2001-2013
</metadata>
<g transform="translate(0.000000,192.000000) scale(0.100000,-0.100000)"
fill="#000000" stroke="none">
<path d="M668 1792 c-9 -9 -13 -23 -10 -31 3 -9 0 -11 -8 -6 -8 5 -11 4 -6 -3
3 -6 -3 -13 -14 -17 -11 -3 -20 -13 -20 -21 0 -8 -4 -13 -9 -10 -4 3 -13 -6
-20 -20 -6 -14 -16 -22 -21 -19 -6 4 -10 3 -9 -2 4 -21 -2 -34 -13 -28 -7 4
-3 -2 9 -13 21 -19 21 -20 4 -36 -22 -20 -28 -20 -28 -2 0 8 6 12 14 9 7 -3
13 1 13 8 0 7 -3 9 -7 6 -3 -4 -16 1 -27 10 -12 10 -16 11 -9 4 10 -11 9 -17
-5 -28 -16 -12 -15 -12 3 -6 16 6 13 -2 -14 -35 -18 -24 -31 -45 -28 -48 3 -3
10 4 17 15 6 12 15 21 21 21 5 0 -5 -16 -22 -35 -18 -19 -38 -35 -45 -35 -7 0
-16 -5 -20 -12 -5 -8 -1 -9 12 -5 11 4 3 -8 -18 -27 -21 -19 -38 -36 -38 -38
0 -5 -16 -24 -179 -210 l-112 -127 17 -28 c10 -15 25 -36 33 -46 17 -20 22
-55 9 -63 -4 -3 -9 0 -9 5 -1 6 -2 17 -3 24 -1 6 -7 11 -13 10 -7 -2 -10 6 -8
16 2 10 -1 24 -6 32 -5 8 -9 10 -10 4 0 -5 -2 -18 -4 -28 -2 -10 5 -26 15 -35
11 -8 17 -18 15 -22 -2 -3 5 -13 16 -21 12 -8 28 -20 37 -27 16 -11 16 -12 -1
-6 -9 3 -17 1 -17 -5 0 -6 3 -10 8 -9 4 2 18 -5 32 -15 13 -9 18 -17 11 -17
-8 0 -12 -3 -8 -6 3 -3 11 -3 17 1 8 5 6 14 -5 31 -14 22 -14 24 1 24 10 0 14
-3 10 -7 -3 -4 4 -13 16 -21 14 -8 16 -11 5 -8 -10 3 -15 2 -12 -4 3 -5 1 -19
-5 -30 -8 -16 -8 -20 2 -18 7 2 12 -2 11 -8 -1 -7 5 -11 15 -10 9 0 17 -5 17
-11 0 -7 14 -28 32 -47 24 -27 33 -31 37 -20 4 10 2 12 -6 8 -7 -5 -8 -3 -3 6
6 9 4 11 -5 5 -9 -6 -11 -4 -5 5 6 9 4 11 -5 5 -9 -6 -11 -4 -5 5 5 9 4 11 -3
6 -8 -4 -10 -2 -6 8 3 9 -3 19 -16 26 -11 6 -17 16 -14 22 5 7 2 9 -9 5 -12
-4 -15 -2 -11 11 5 14 4 15 -5 2 -7 -9 -11 -10 -11 -3 0 6 4 14 9 17 11 7 43
-28 34 -37 -3 -4 1 -7 10 -7 10 0 17 -4 17 -10 0 -5 11 -20 25 -34 15 -15 22
-31 19 -41 -4 -10 -2 -14 7 -11 8 3 34 -20 62 -56 l47 -61 -27 -31 -28 -31 27
24 c23 20 30 22 43 11 8 -7 15 -18 15 -24 0 -7 7 -21 16 -32 14 -18 15 -18 4
6 -9 22 -9 23 2 5 7 -10 33 -39 57 -63 37 -35 42 -45 30 -54 -11 -8 -10 -9 5
-4 13 5 17 2 12 -9 -3 -9 3 -20 14 -27 11 -7 20 -17 20 -23 0 -5 16 -11 37
-12 20 -1 40 -8 44 -15 5 -7 9 -8 9 -3 0 19 -15 32 -33 29 -9 -1 -15 1 -12 5
2 4 -2 8 -10 8 -8 0 -11 -5 -8 -10 4 -6 1 -7 -6 -3 -9 6 -8 13 5 27 9 10 12
19 6 19 -6 0 -12 -5 -14 -10 -4 -14 -48 27 -47 43 0 9 2 9 6 0 2 -7 11 -13 19
-13 8 0 14 -4 14 -9 0 -5 8 -8 18 -7 9 0 16 -5 14 -12 -2 -9 4 -11 18 -7 15 5
20 2 21 -12 0 -12 2 -14 6 -4 4 10 7 11 13 1 4 -7 16 -13 26 -14 32 -3 92 -38
103 -60 7 -12 9 -13 7 -4 -4 14 -1 15 25 6 16 -5 26 -15 22 -21 -3 -6 -1 -7 5
-3 6 3 58 -16 117 -43 l105 -50 39 42 c21 23 62 71 92 107 29 36 154 183 276
327 123 144 223 269 223 277 0 8 -4 18 -10 21 -5 3 -10 15 -10 26 0 12 4 17
11 14 6 -4 5 2 -3 14 -7 12 -21 24 -31 27 -14 4 -16 9 -8 17 18 18 13 31 -6
16 -9 -8 -14 -9 -10 -3 4 7 -2 23 -13 37 l-21 26 22 -4 c12 -2 18 -1 15 3 -4
4 -12 8 -17 8 -5 1 -13 2 -18 3 -5 0 -13 11 -17 24 -4 12 -9 24 -13 27 -6 5
-79 139 -139 258 -20 39 -40 72 -43 72 -4 0 -67 29 -141 64 -73 35 -162 77
-198 94 -36 17 -137 64 -224 106 -102 48 -164 72 -171 66 -12 -10 -33 -9 -51
3 -6 3 -18 -1 -26 -11z m45 -5 c4 3 7 1 7 -5 0 -11 -14 -16 -34 -13 -5 1 -6
-5 -3 -13 3 -8 -11 -31 -36 -57 -23 -23 -42 -46 -42 -50 0 -12 -11 -19 -34
-24 -17 -3 -19 -1 -12 13 18 32 52 62 63 56 7 -5 9 -2 5 9 -4 10 3 21 19 32
14 9 23 22 21 30 -8 18 14 37 28 25 7 -5 15 -7 18 -3z m-193 -227 c0 -5 -5
-10 -11 -10 -5 0 -7 5 -4 10 3 6 8 10 11 10 2 0 4 -4 4 -10z m-324 -682 c-5
-3 -20 1 -33 9 -17 11 -20 19 -13 28 5 6 9 14 7 16 -1 2 9 -7 23 -21 14 -14
21 -28 16 -32z m94 -138 c0 -5 -2 -10 -4 -10 -3 0 -8 5 -11 10 -3 6 -1 10 4
10 6 0 11 -4 11 -10z m370 -416 c0 -2 -9 0 -20 6 -11 6 -20 13 -20 16 0 2 9 0
20 -6 11 -6 20 -13 20 -16z"/>
<path d="M676 1782 c-3 -5 1 -9 9 -9 8 0 12 4 9 9 -3 4 -7 8 -9 8 -2 0 -6 -4
-9 -8z"/>
<path d="M651 1730 c-13 -11 -19 -20 -14 -20 6 0 18 9 28 20 23 25 17 25 -14
0z"/>
<path d="M590 1665 c-13 -14 -20 -28 -17 -32 4 -3 7 -1 7 6 0 7 5 9 13 5 6 -4
9 -3 4 1 -4 5 0 17 10 27 25 28 10 22 -17 -7z"/>
<path d="M151 907 c2 -1 13 -9 24 -17 19 -14 19 -14 6 3 -7 9 -18 17 -24 17
-6 0 -8 -1 -6 -3z"/>
<path d="M590 1786 c0 -2 7 -7 16 -10 8 -3 12 -2 9 4 -6 10 -25 14 -25 6z"/>
<path d="M575 1739 c-3 -4 2 -6 10 -5 21 3 28 13 10 13 -9 0 -18 -4 -20 -8z"/>
<path d="M519 1653 c-13 -16 -12 -17 4 -4 9 7 17 15 17 17 0 8 -8 3 -21 -13z"/>
<path d="M445 1540 c-3 -6 1 -7 9 -4 18 7 21 14 7 14 -6 0 -13 -4 -16 -10z"/>
<path d="M436 1488 c3 -5 10 -6 15 -3 13 9 11 12 -6 12 -8 0 -12 -4 -9 -9z"/>
<path d="M390 1440 c0 -5 5 -10 11 -10 5 0 7 5 4 10 -3 6 -8 10 -11 10 -2 0
-4 -4 -4 -10z"/>
<path d="M110 976 c0 -2 8 -10 18 -17 15 -13 16 -12 3 4 -13 16 -21 21 -21 13z"/>
<path d="M126 838 c10 -14 21 -24 23 -22 3 3 -6 15 -18 27 l-24 22 19 -27z"/>
<path d="M343 662 c-8 -5 -7 -11 2 -19 11 -10 15 -10 18 0 3 7 6 4 6 -6 1 -21
26 -49 35 -40 3 4 6 1 6 -6 0 -15 29 -46 36 -39 2 3 -8 19 -24 36 -16 17 -27
34 -23 38 3 4 0 4 -6 0 -8 -4 -13 -1 -13 7 0 20 -23 38 -37 29z"/>
<path d="M464 510 c0 -13 4 -16 10 -10 7 7 7 13 0 20 -6 6 -10 3 -10 -10z"/>
<path d="M510 441 c0 -6 4 -12 8 -15 5 -3 9 1 9 9 0 8 -4 15 -9 15 -4 0 -8 -4
-8 -9z"/>
<path d="M540 422 c0 -4 14 -16 30 -25 17 -10 30 -16 30 -14 0 2 -13 13 -30
25 -16 13 -30 19 -30 14z"/>
<path d="M757 291 c14 -13 28 -18 39 -14 12 4 15 3 10 -5 -5 -8 -1 -10 10 -5
10 4 15 2 11 -3 -3 -5 3 -10 14 -10 27 0 25 3 -21 26 -22 11 -40 18 -40 15 0
-3 -10 0 -22 6 l-23 11 22 -21z"/>
<path d="M676 258 c3 -5 10 -6 15 -3 13 9 11 12 -6 12 -8 0 -12 -4 -9 -9z"/>
<path d="M753 233 c0 -9 4 -10 14 -2 7 6 13 12 13 14 0 1 -6 2 -13 2 -8 0 -14
-6 -14 -14z"/>
<path d="M790 240 c0 -5 5 -10 11 -10 5 0 7 5 4 10 -3 6 -8 10 -11 10 -2 0 -4
-4 -4 -10z"/>
</g>
</svg>
